:SAMPLES-PER-SECOND 30
:FULLY-SPECIFIED
:DEGREES
454
root  -3.29724 40.946 1.0121 -170.526 -86.8126 174.212
RightUpLeg  0.857195 -1.7274 -3.14304
RightLeg  -3.07646 -15.8259 0.753511
RightFoot  0.314433 -0.450843 4.51459
RightToes  -3.11842e-008 1.75238e-005 3.56266e-009
Spine  -6.87248 -1.08152 -0.778087
Spine1  1.08606 -1.13823 0.486449
HEad  -13.788 11.6728 -22.3808
LeftShoulder1  3.15701 -5.71866 -28.1749
LeftArm  -30.1341 -2.77788 -35.5839
LeftForeArm  41.6965 -78.0934 -86.2957
LeftHand  0.205678 8.44478 9.02497
RightShoulder  3.44941 6.58445 28.2354
RightArm  18.8513 -24.6918 34.7226
RightForeArm  97.4341 70.8599 142.312
RightHand  -0.207397 3.7537 -2.89489
LeftUpLeg  1.3432 -0.0381494 0.701689
LeftLeg  -5.05914 18.8965 -2.10248
LeftFoot  0.724693 0.148772 -1.51517
LeftToes  4.7713e-008 1.46693e-008 1.32589e-009
455
root  -3.31212 40.9455 1.016 -170.555 -86.671 174.176
RightUpLeg  0.914301 -1.80387 -3.20485
RightLeg  -3.03687 -15.6038 0.787241
RightFoot  0.271605 -0.448364 4.47846
RightToes  -3.11842e-008 1.75238e-005 3.56266e-009
Spine  -7.22554 -0.487003 0.437922
Spine1  1.64655 -0.306029 -1.32386
HEad  -13.0114 12.6046 -21.0179
LeftShoulder1  3.21441 -5.74895 -28.6985
LeftArm  -27.6972 0.555099 -35.7926
LeftForeArm  59.8298 -77.7017 -104.95
LeftHand  0.147393 7.69066 8.89933
RightShoulder  3.42684 6.49376 28.3191
RightArm  18.7378 -24.8206 34.4909
RightForeArm  96.9595 70.7601 142.477
RightHand  -0.203301 3.29297 -2.95602
LeftUpLeg  1.48539 -0.112611 0.626315
LeftLeg  -5.13284 19.1201 -2.06277
LeftFoot  0.730382 0.147226 -1.50967
LeftToes  4.7713e-008 1.46693e-008 1.32589e-009
456
root  -3.31436 40.9455 0.996859 -171.211 -86.7322 174.699
RightUpLeg  1.14009 -1.7564 -3.12687
RightLeg  -3.17733 -15.6916 0.807824
RightFoot  0.308211 -0.447725 4.4709
RightToes  -3.11842e-008 1.75238e-005 3.56266e-009
Spine  -7.6355 -0.158761 0.835736
Spine1  2.4733 0.152408 -2.12721
HEad  -12.3233 12.9401 -19.3814
LeftShoulder1  3.23989 -5.74193 -29.0028
LeftArm  -25.8248 3.349 -36.4086
LeftForeArm  70.7593 -76.8855 -115.334
LeftHand  0.131866 7.4452 9.00298
RightShoulder  3.57379 6.8444 28.5865
RightArm  18.4337 -24.808 33.8035
RightForeArm  97.8846 70.6588 142.793
RightHand  -0.252486 4.0821 -3.36536
LeftUpLeg  1.56492 -0.0415605 0.693455
LeftLeg  -4.98639 19.004 -2.00373
LeftFoot  0.695214 0.146062 -1.50847
LeftToes  4.7713e-008 1.46693e-008 1.32589e-009
457
root  -3.31363 40.9458 0.970672 -171.27 -86.8135 174.545
RightUpLeg  1.36256 -1.79944 -3.10292
RightLeg  -3.11856 -15.7301 0.818895
RightFoot  0.232166 -0.44661 4.456
RightToes  -3.11842e-008 1.75238e-005 3.56266e-009
Spine  -7.96017 0.24335 0.248731
Spine1  3.22588 0.52506 -1.56268
HEad  -11.7376 12.6161 -18.04
LeftShoulder1  3.34052 -5.98746 -29.1636
LeftArm  -24.259 6.19922 -37.4937
LeftForeArm  77.9924 -76.2948 -120.717
LeftHand  0.107865 7.16231 8.8301
RightShoulder  3.50195 6.7349 28.2436
RightArm  18.6979 -23.6165 33.3478
RightForeArm  97.2926 70.8229 142.376
RightHand  -0.304771 4.04355 -4.02347
LeftUpLeg  1.84193 -0.0170255 0.729698
LeftLeg  -5.09413 18.8982 -1.99957
LeftFoot  0.715664 0.150699 -1.59522
LeftToes  4.7713e-008 1.46693e-008 1.32589e-009
458
root  -3.30269 40.9464 0.923867 -171.91 -87.2282 174.896
RightUpLeg  1.77793 -1.87566 -3.01982
RightLeg  -3.22393 -16.0415 0.986385
RightFoot  0.225499 -0.44009 4.35722
RightToes  -3.11842e-008 1.75238e-005 3.56266e-009
Spine  -8.12198 0.305122 -0.164532
Spine1  3.83781 0.606112 -1.4063
HEad  -11.1997 12.4875 -16.1606
LeftShoulder1  3.19829 -5.88572 -28.0036
LeftArm  -23.1534 9.14892 -40.2572
LeftForeArm  84.221 -75.8253 -124.427
LeftHand  0.0983467 7.10893 8.5105
RightShoulder  3.64031 7.01747 28.6538
RightArm  18.6915 -22.5147 32.5473
RightForeArm  96.6728 71.0065 141.906
RightHand  -0.282887 3.85362 -3.77919
LeftUpLeg  1.99225 0.0943523 0.877944
LeftLeg  -4.85436 18.3673 -1.85697
LeftFoot  0.681079 0.15413 -1.66036
LeftToes  4.7713e-008 1.46693e-008 1.32589e-009
459
root  -3.2801 40.9469 0.88471 -172.694 -87.6227 175.481
RightUpLeg  2.07943 -1.98011 -2.95649
RightLeg  -3.34446 -16.3051 1.18547
RightFoot  0.215235 -0.426935 4.15601
RightToes  -3.11842e-008 1.75238e-005 3.56266e-009
Spine  -7.93939 0.283406 -1.22494
Spine1  3.99239 0.416046 -0.0936676
HEad  -10.7325 12.3317 -15.101
LeftShoulder1  3.15873 -5.76616 -28.015
LeftArm  -21.593 12.7043 -41.8155
LeftForeArm  93.5793 -74.8348 -130.406
LeftHand  0.0394727 6.33938 7.54179
RightShoulder  3.70697 7.26466 28.4688
RightArm  18.7264 -21.8562 32.0741
RightForeArm  97.2663 71.0069 141.97
RightHand  -0.129008 2.93725 -2.04064
LeftUpLeg  1.98584 0.211689 1.02924
LeftLeg  -4.52478 17.8615 -1.72264
LeftFoot  0.629348 0.154978 -1.68192
LeftToes  4.7713e-008 1.46693e-008 1.32589e-009
460
root  -3.2676 40.9472 0.864912 -173.331 -87.8595 175.958
RightUpLeg  2.24391 -1.96361 -2.8699
RightLeg  -3.29261 -16.5497 1.17351
RightFoot  0.173325 -0.426796 4.15766
RightToes  -3.11842e-008 1.75238e-005 3.56266e-009
Spine  -7.58564 0.372497 -1.61228
Spine1  3.7801 0.479583 0.210155
HEad  -10.0902 11.6363 -13.9649
LeftShoulder1  3.17681 -5.84603 -27.915
LeftArm  -19.0795 16.9943 -42.3536
LeftForeArm  104.887 -73.2971 -137.266
LeftHand  -0.0507661 4.75619 5.15289
RightShoulder  3.74379 7.27356 28.792
RightArm  18.8967 -21.056 31.5574
RightForeArm  98.0569 71.1312 141.779
RightHand  -0.09784 3.11333 -1.56607
LeftUpLeg  2.01992 0.274724 1.10566
LeftLeg  -4.31293 17.5749 -1.62982
LeftFoot  0.558962 0.154052 -1.67184
LeftToes  4.7713e-008 1.46693e-008 1.32589e-009
461
root  -3.26948 40.9471 0.854997 -172.907 -87.9336 175.457
RightUpLeg  2.2939 -1.93384 -2.8414
RightLeg  -3.18963 -16.6568 1.09771
RightFoot  0.0976011 -0.427135 4.16727
RightToes  -3.11842e-008 1.75238e-005 3.56266e-009
Spine  -7.34205 0.629884 -1.57705
Spine1  3.62108 0.794176 -0.0444927
HEad  -9.60548 10.2625 -12.7219
LeftShoulder1  3.17686 -5.90319 -27.703
LeftArm  -15.1437 21.7547 -42.5247
LeftForeArm  114.584 -71.3003 -143.476
LeftHand  -0.0812781 3.36752 3.81771
RightShoulder  3.73811 7.2191 28.9183
RightArm  18.5582 -21.037 31.9494
RightForeArm  99.9095 71.3342 141.532
RightHand  -0.0997874 3.67878 -1.53397
LeftUpLeg  2.07376 0.295501 1.11586
LeftLeg  -4.25903 17.491 -1.62261
LeftFoot  0.510477 0.156546 -1.71031
LeftToes  4.7713e-008 1.46693e-008 1.32589e-009
462
root  -3.27146 40.9464 0.856339 -172.906 -88.0597 175.442
RightUpLeg  2.36409 -1.93742 -2.82979
RightLeg  -3.26297 -16.7813 1.13446
RightFoot  0.109252 -0.422968 4.10719
RightToes  -3.11842e-008 1.75238e-005 3.56266e-009
Spine  -7.34883 0.756333 -1.51822
Spine1  3.71086 0.939275 -0.147895
HEad  -9.64752 9.08473 -11.3939
LeftShoulder1  3.18216 -5.92994 -27.6616
LeftArm  -10.5159 26.8645 -42.0536
LeftForeArm  122.809 -69.2013 -148.393
LeftHand  -0.101377 0.989808 2.62763
RightShoulder  3.82122 7.45215 28.9351
RightArm  18.3311 -21.2818 32.1732
RightForeArm  101.6 71.2997 141.81
RightHand  -0.0311317 3.95353 -0.654527
LeftUpLeg  1.97291 0.339984 1.16338
LeftLeg  -4.0241 17.2761 -1.58154
LeftFoot  0.413966 0.159634 -1.75277
LeftToes  4.7713e-008 1.46693e-008 1.32589e-009
463
root  -3.27064 40.945 0.855988 -172.234 -88.1783 174.708
RightUpLeg  2.47211 -1.96662 -2.84434
RightLeg  -3.31174 -16.8844 1.15575
RightFoot  0.106944 -0.426002 4.15888
RightToes  -3.11842e-008 1.75238e-005 3.56266e-009
Spine  -7.46001 0.95123 -1.57759
Spine1  4.14263 1.13499 -0.0805943
HEad  -9.75872 7.83994 -10.2164
LeftShoulder1  3.2552 -6.07299 -27.9298
LeftArm  -6.13458 31.361 -41.3259
LeftForeArm  130.474 -67.7363 -151.445
LeftHand  -0.0550007 -1.04051 1.05211
RightShoulder  3.81213 7.46561 28.8048
RightArm  18.2513 -21.2712 32.6766
RightForeArm  102.855 71.45 141.623
RightHand  0.0285353 4.11757 0.080149
LeftUpLeg  1.95109 0.408168 1.19267
LeftLeg  -3.85388 17.0555 -1.58373
LeftFoot  0.344188 0.159823 -1.74431
LeftToes  4.7713e-008 1.46693e-008 1.32589e-009
464
root  -3.26584 40.9414 0.854777 -172.04 -88.4035 174.357
RightUpLeg  2.6544 -1.94632 -2.80408
RightLeg  -3.28005 -17.1204 1.12319
RightFoot  0.0314384 -0.427311 4.18353
RightToes  -3.11842e-008 1.75238e-005 3.56266e-009
Spine  -7.35393 1.24834 -1.39643
Spine1  4.72256 1.49621 -0.410251
HEad  -10.5727 6.01397 -8.74776
LeftShoulder1  3.25163 -6.07677 -27.8775
LeftArm  -1.88925 35.1593 -41.1296
LeftForeArm  136.964 -66.5942 -153.637
LeftHand  -0.10572 -2.44634 1.75402
RightShoulder  3.69559 7.12879 28.8123
RightArm  18.3057 -20.9529 33.1631
RightForeArm  102.937 71.5983 141.293
RightHand  0.0944239 3.97806 0.899637
LeftUpLeg  2.02166 0.513379 1.25304
LeftLeg  -3.69973 16.7157 -1.59006
LeftFoot  0.250239 0.155986 -1.66682
LeftToes  4.7713e-008 1.46693e-008 1.32589e-009
465
root  -3.24543 40.938 0.846222 -171.202 -88.7942 173.342
RightUpLeg  2.8547 -1.87879 -2.71207
RightLeg  -3.25067 -17.5789 1.07078
RightFoot  -0.0333057 -0.423446 4.12731
RightToes  -3.11842e-008 1.75238e-005 3.56266e-009
Spine  -7.17452 1.43545 -0.994987
Spine1  5.02723 1.81212 -1.14493
HEad  -11.2057 4.26014 -6.72161
LeftShoulder1  3.30889 -6.26534 -27.8066
LeftArm  1.32713 38.274 -41.0287
LeftForeArm  139.562 -65.8801 -154.742
LeftHand  -0.167683 -3.02517 2.56414
RightShoulder  3.86629 7.5014 29.1929
RightArm  18.2483 -20.5324 33.2119
RightForeArm  102.839 71.9538 140.444
RightHand  0.111437 3.929 1.12207
LeftUpLeg  1.99963 0.637871 1.35897
LeftLeg  -3.38969 16.1462 -1.54743
LeftFoot  0.130346 0.161741 -1.73142
LeftToes  4.7713e-008 1.46693e-008 1.32589e-009
466
root  -3.19514 40.9352 0.830462 -168.11 -89.1352 170.22
RightUpLeg  2.76319 -1.83446 -2.65858
RightLeg  -3.05537 -17.9714 0.994854
RightFoot  -0.102379 -0.423189 4.12628
RightToes  -3.11842e-008 1.75238e-005 3.56266e-009
Spine  -6.99522 1.59201 -0.775348
Spine1  5.16621 2.0839 -1.71823
HEad  -11.5092 1.65368 -4.42549
LeftShoulder1  3.28978 -6.27368 -27.5767
LeftArm  3.09093 41.0308 -41.5672
LeftForeArm  139.921 -65.1972 -155.521
LeftHand  -0.103036 -3.77385 1.55956
RightShoulder  4.0686 7.95446 29.5765
RightArm  18.2379 -18.8757 33.0699
RightForeArm  100.879 72.2265 139.519
RightHand  0.141148 3.77896 1.52763
LeftUpLeg  1.79003 0.676576 1.4069
LeftLeg  -3.11916 15.7429 -1.49388
LeftFoot  0.0888991 0.164573 -1.71541
LeftToes  4.7713e-008 1.46693e-008 1.32589e-009
467
root  -3.15367 40.9349 0.824006 -165.274 -88.9793 167.286
RightUpLeg  2.64059 -1.81214 -2.69387
RightLeg  -2.74962 -17.8468 0.818112
RightFoot  -0.180801 -0.423026 4.12562
RightToes  -3.11842e-008 1.75238e-005 3.56266e-009
Spine  -6.48679 2.12149 -0.292662
Spine1  4.80443 2.81131 -2.76159
HEad  -10.9684 -1.42822 -1.37099
LeftShoulder1  3.27693 -6.38702 -27.0434
LeftArm  4.30308 43.1756 -42.2968
LeftForeArm  141.053 -64.6635 -156.192
LeftHand  -0.0330529 -4.01398 0.679766
RightShoulder  4.16252 8.17238 29.7219
RightArm  17.7193 -15.5908 33.3204
RightForeArm  96.3981 72.5956 137.968
RightHand  0.178166 3.6429 2.02913
LeftUpLeg  1.9576 0.649676 1.34069
LeftLeg  -3.35897 15.8974 -1.58177
LeftFoot  0.20804 0.166093 -1.65254
LeftToes  4.7713e-008 1.46693e-008 1.32589e-009
468
root  -3.11866 40.9402 0.818896 -170.606 -88.9985 172.692
RightUpLeg  2.57266 -1.72488 -2.57638
RightLeg  -2.91502 -17.9572 0.89602
RightFoot  -0.0181915 -0.421008 4.09478
RightToes  -3.11842e-008 1.75238e-005 3.56266e-009
Spine  -6.19084 2.50445 -0.127586
Spine1  4.17989 3.22279 -3.02679
HEad  -10.6007 -5.02323 1.30232
LeftShoulder1  3.2828 -6.43358 -26.9449
LeftArm  4.68285 44.6413 -43.0357
LeftForeArm  142.047 -64.2969 -156.657
LeftHand  0.0150671 -4.41731 0.0975963
RightShoulder  4.17347 8.38437 29.1616
RightArm  16.2789 -10.0917 33.7218
RightForeArm  90.9482 73.0412 136.008
RightHand  0.168912 3.15072 2.0732
LeftUpLeg  1.81207 0.638744 1.42798
LeftLeg  -3.34901 15.8946 -1.51036
LeftFoot  0.259671 0.19125 -1.89888
LeftToes  4.7713e-008 1.46693e-008 1.32589e-009
